<?xml version="1.0" encoding="UTF-8" standalone="no"?>
<svg
   xmlns:dc="http://purl.org/dc/elements/1.1/"
   xmlns:cc="http://creativecommons.org/ns#"
   xmlns:rdf="http://www.w3.org/1999/02/22-rdf-syntax-ns#"
   xmlns:svg="http://www.w3.org/2000/svg"
   xmlns="http://www.w3.org/2000/svg"
   xmlns:sodipodi="http://sodipodi.sourceforge.net/DTD/sodipodi-0.dtd"
   xmlns:inkscape="http://www.inkscape.org/namespaces/inkscape"
   inkscape:version="1.0 (4035a4f, 2020-05-01)"
   sodipodi:docname="signature.svg"
   viewBox="0 0 795.44696 341.73691"
   height="341.73691"
   width="795.44696"
   id="svg10"
   version="1.1">
  <metadata
     id="metadata16">
    <rdf:RDF>
      <cc:Work
         rdf:about="">
        <dc:format>image/svg+xml</dc:format>
        <dc:type
           rdf:resource="http://purl.org/dc/dcmitype/StillImage" />
        <dc:title></dc:title>
      </cc:Work>
    </rdf:RDF>
  </metadata>
  <defs
     id="defs14" />
  <sodipodi:namedview
     inkscape:current-layer="g18"
     inkscape:window-maximized="0"
     inkscape:window-y="23"
     inkscape:window-x="0"
     inkscape:cy="171.49987"
     inkscape:cx="396.56331"
     inkscape:zoom="1.3532072"
     fit-margin-bottom="0"
     fit-margin-right="0"
     fit-margin-left="0"
     fit-margin-top="0"
     showgrid="false"
     id="namedview12"
     inkscape:window-height="802"
     inkscape:window-width="1287"
     inkscape:pageshadow="2"
     inkscape:pageopacity="0"
     guidetolerance="10"
     gridtolerance="10"
     objecttolerance="10"
     borderopacity="1"
     bordercolor="#666666"
     pagecolor="#ffffff" />
  <g
     transform="translate(-8.7700311,-9.8334555)"
     id="g18"
     inkscape:label="Image"
     inkscape:groupmode="layer">
    <path
       inkscape:export-ydpi="96"
       inkscape:export-xdpi="96"
       id="path22"
       d="m 130.88363,34.594348 h 0.66667 c 1.29066,5.618133 -1.058,12.350666 -1.91067,17.999998 -2.018,13.376667 -4.58067,26.622667 -6.55667,40 -6.67,45.159334 -16.36466,90.086004 -22.38733,135.333334 -1.965343,14.76667 -6.293343,30.44467 -6.476003,45.33333 -0.0373,3.05467 -1.70067,13.884 2.69333,14.356 4.532673,0.48667 6.100003,-7.92066 7.076673,-11.02266 3.82333,-12.14267 3.20733,-24.856 6.894,-36.66667 3.96933,2.13 4.29133,7.36934 5.63267,11.33334 2.66666,7.88266 5.49266,21.32799 12.368,26.24133 11.80733,8.43866 19.20933,-3.23734 28.66866,-7.75933 5.79867,-2.772 13.87734,-2.00934 19.99734,-0.97534 3.06333,0.51734 11.02667,2.51467 12.648,5.25867 3.50867,5.93733 -1.14533,14.59266 6.048,19.33933 5.89067,3.88667 14.568,0.20933 19.97067,-3.00667 14.13,-8.41 19.47066,-31.53933 25.34066,-45.76466 2.096,-5.08 6.94734,-16.796 13.326,-17.466 3.164,-0.33267 6.58667,3.546 8.65667,5.526 4.748,4.53867 9.546,11.29133 10.53733,17.94 0.78534,5.26733 0.0873,15.87933 4.94867,19.19 7.904,5.38466 18.10867,-5.97333 25.85734,-7.596 4.73266,-0.99067 8.71933,2.924 13.33333,3.546 8.482,1.14333 20.37067,0.83533 28.66667,-1.14 2.72066,11.56133 -2.84467,28.72933 -5.85,40 -0.732,2.74333 -3.73934,11.84133 1.22733,12.62666 4.118,0.65067 4.84133,-10.714 7.32867,-13.10266 8,-7.68334 17.354,-14.38467 26.62733,-20.41934 2.92733,-1.90533 7.11867,-5.74933 10.63733,-6.23 4.57667,-0.624 5.22067,15.17067 6.912,18.45867 6.02534,11.71333 16.47134,15.91 29.11734,13.69067 12.73733,-2.23467 27.13667,-10.90867 37.33333,-18.69267 4.31134,-3.29133 7.98867,-7.872 12.66667,-10.622 3.63133,-2.13467 9.23733,-1.55467 13.33333,-2.332 5.01867,-0.95333 10.172,-3.58733 14.66667,-5.97067 7.47733,-3.96466 16.26333,-15.44866 24.66667,-16.03599 6.658,-0.46534 13.48533,4.96066 18.66667,8.63 9.554,6.76599 19.63533,14.96066 31.33333,17.15866 19.152,3.59867 39.398,0.45067 58.66667,0.92667 15.50933,0.38266 30.25533,5.432 46,5.24466 21.45333,-0.25533 43.28,-5.84733 64.66667,-7.884 13.06667,-1.24466 26.24667,-2.02466 39.33333,-3.33266 6.38667,-0.63867 14.12,0.0493 20,-2.78067 v -1.33333 c -8.58,-2.35867 -20.52,1.71066 -29.33333,2.55333 -21.53334,2.05867 -43.1,3.27267 -64.66667,5.33333 -12.54,1.198 -26.03333,3.73267 -38.66667,2.708 -12.914,-1.04733 -25.60533,-4.186 -38.66667,-4.50866 -15.264,-0.37667 -30.66333,0.53466 -46,-0.112 -10.36533,-0.43734 -18.84266,-2.39334 -27.33333,-8.58733 -9.69133,-7.07 -21.64467,-19.96667 -34.66667,-19.618 -4.818,0.12866 -9.80867,5.50133 -13.39267,8.33533 -8.34333,6.59667 -19.15333,15.60533 -30.60733,14.56266 l 28.74133,-33.33333 11.96134,-18.404 19.964,-7.596 v -1.33333 l -0.66667,-0.66667 -17.33333,4.66667 c 0.73,-9.24 3.54067,-18.638 1.74933,-28 -4.16333,-21.766 -19.394,-40.09867 -29.42533,-59.33333 -3.02267,-5.796 -5.55267,-12.48667 -7.68067,-18.66667 -0.77667,-2.25667 -0.33667,-5.176 -1.882,-7.12133 -2.97733,-3.748001 -9.80533,-0.37667 -12.41867,2.14066 -10.64466,10.25467 -11.432,26.05667 -13.202,39.64734 -2.76466,21.22133 -7.61133,41.89733 -9.08133,63.33333 -0.52867,7.72 -0.36133,15.60733 -0.7,23.33333 -0.12133,2.776 0.73733,6.706 -0.71133,9.20734 -1.71534,2.96133 -6.99934,4.18133 -9.98134,5.45866 -9.216,3.94867 -18.67733,7.08667 -28,10.72734 -7.11867,2.77933 -14.31067,9.524 -22,9.94 0,-51.91934 5.13933,-108.476 29.16134,-155.33334 5.58,-10.88333 12.54466,-20.770668 19.702,-30.666668 2.9,-4.009999 6.31533,-9.804666 11.13733,-11.593333 6.674,-2.476 18.32333,-3.422666 17.90067,6.926667 -0.20267,4.962666 -4.008,9.971333 -5.50467,14.666666 -0.39867,1.250667 -1.52,8.387337 1.848,5.558667 2.28133,-1.916 3.16,-6.890667 4.43867,-9.558667 2.29133,-4.782 5.872,-10.426666 5.16466,-15.999999 -1.47,-11.595333 -16.29733,-11.549 -24.51466,-8.4506 -8.712,3.285266 -11.05134,10.623933 -15.984,17.783933 -11.21267,16.275333 -19.64267,33.460674 -26.57734,52.000004 -11.28533,30.17333 -14.81467,64.226 -17.99133,96 -1.22,12.19867 3.39933,28.44733 -1.27534,39.97133 -1.36266,3.35867 -5.89066,4.68933 -8.83866,6.278 -7.66067,4.12933 -14.95467,8.348 -22,13.468 -3.12534,2.272 -5.94134,5.76333 -10,5.616 1.70733,-6.93133 1.926,-14.27467 3.04066,-21.33333 0.36534,-2.31467 0.0207,-6.09867 2.99867,-6.78867 2.31,-0.53466 4.734,1.67534 6.62733,2.67534 4.29,2.26666 7.75667,3.65999 12.66667,3.41999 2.412,-0.118 14.78267,-3.41466 11.94267,-7.57133 -1.81534,-2.656 -9.41934,1.74734 -11.94267,2.07067 -4.608,0.59133 -17.534,-4.458 -19.97867,-8.62267 -1.56333,-2.662 0.35067,-7.044 0.80934,-9.85 1.24733,-7.63266 2.53266,-15.638 3.10933,-23.33333 2.48467,-33.17 11.08,-65.38 3.98267,-98.66667 -1.97267,-9.25333 -2.8,-19.21533 -3.812,-28.666668 -0.164,-1.533333 -0.176,-9.242666 -3.22467,-8.165333 -2.306,0.814667 -0.924,7.576667 -0.876,9.49867 0.24133,9.673331 2.504,19.694001 3.43667,29.333331 3.23133,33.39267 -0.008,66.10067 -3.33267,99.33334 -0.778,7.77333 -1.35067,15.58866 -2.61667,23.33333 -0.462,2.82667 -0.36133,6.73933 -3.53666,7.848 -7.34334,2.56333 -21.63334,2.75667 -29.294,1.30267 -5.45467,-1.03534 -9.418,-4.48067 -15.33334,-2.648 -4.202,1.30133 -15.25733,9.90333 -19.12133,6.976 -2.89334,-2.192 -1.962,-10.13134 -2.50534,-13.47867 -1.61733,-9.97133 -6.81333,-17.908 -14.37333,-24.474 -3.548,-3.08133 -7.72533,-6.07933 -12.664,-4.39067 -6.858,2.34467 -10.91133,12.02134 -13.31,18.198 -4.95267,12.75467 -10.708,26.468 -19.136,37.33333 -4.29867,5.542 -12.58533,15.28334 -20.88667,12.07067 -4.99,-1.93067 -7.39333,-10.60467 -5.60133,-15.40133 1.32733,-3.55133 5.45467,-4.66333 7.76533,-7.406 4.74734,-5.63533 7.894,-12.49667 10.63334,-19.26333 11.21533,-27.70734 16.94,-56.434 21.06,-86 2.59933,-18.656 4.06866,-38.418 9.002,-56.66667 3.58133,-13.250004 5.28066,-27.176671 10.48066,-40.000004 1.01867,-2.510866 7.43,-10.406333 4.892,-12.776199 -3.06066,-2.858333 -10.43333,4.074333 -12.45866,6.034933 -9.67534,9.365933 -16.22267,21.471266 -20.556,34.074599 -3.50334,10.190001 -8.682,19.739341 -11.954,30.000001 -9.50867,29.82134 -16.52334,63.39267 -17.90734,94.66667 -0.542,12.25 -1.67533,24.50733 -3.16866,36.66667 -0.372,3.03333 1.212,10.06533 -1.736,11.97866 -2.792,1.81267 -6.56467,-1.028 -9.12134,-2.02733 -5.00133,-1.95533 -11.348,-2.21867 -16.66667,-1.92267 -10.302,0.574 -14.14733,7.88934 -22.66666,11.788 -3.59067,1.64333 -8.41467,1.16667 -11.07067,-1.88933 -5.902,-6.792 -7.39333,-20.814 -10.33,-29.26067 -1.17667,-3.38466 -3.36733,-9.256 -7.29267,-10.19266 -4.83666,-1.15334 -6.39666,5.48733 -7.29066,8.85933 -2.99934,11.31467 -3.85134,22.648 -7.349343,34 -2.20933,-4.59733 -0.11533,-9.13867 0,-14 0.34533,-14.52333 3.461333,-29.81067 6.324003,-44 5.73867,-28.44133 9.69267,-57.42467 14.75267,-86 3.36667,-19.01133 8.37733,-37.563338 11.06267,-56.666671 2.24533,-15.975199 4.66666,-32.098465 7.45066,-47.999999 0.46734,-2.6692 2.67734,-14.625266 0.234,-15.882733 -1.968,-1.0129996 -2.93666,1.8696 -3.31466,3.219133 -1.31067,4.680867 -2.16934,9.34 -3.732,13.996933 -6.30667,18.797468 -12.99067,37.329733 -17.57467,56.666666 -10.03133,42.312001 -23.839343,82.907341 -37.819343,124.000001 -8.62066,25.33867 -15.6266,50.728 -26.33293,75.33333 -7.49233,17.21934 -17.2062,34.39534 -27.64354,50 -2.4782,3.70534 -13.7035497,12.49867 -12.8024397,17.118 0.56518,2.898 4.3671097,-0.29333 5.2052397,-1.15666 4.75447,-4.89534 9.67847,-9.63267 14.30354,-14.654 9.5224,-10.33867 12.73953,-22.52934 17.5756,-35.30734 2.74173,-7.244 6.61513,-14.08333 9.41513,-21.33333 7.68127,-19.89 12.6712,-40.46466 19.2894,-60.66666 8.18734,-24.99 17.52867,-49.44734 25.094,-74.66667 C 110.50896,106.57368 118.75963,70.211679 130.88363,34.594348 m 122,22.666665 c -0.548,6.2354 -3.97733,12.597333 -5.67666,18.666666 -3.756,13.416667 -6.67534,27.022671 -9.40934,40.666671 -6.71333,33.508 -8.422,68.556 -18.85666,101.33333 -3.824,12.01134 -8.10534,23.63067 -14.34,34.66667 -2.43734,4.314 -5.12134,9.75867 -9.71734,12 -3.65533,-12.36667 1.40534,-27.476 1.974,-40 1.906,-41.99333 10.118,-85.56467 27.71934,-124 4.974,-10.861338 10.25,-21.562004 17.16666,-31.333337 3.25267,-4.595 5.97934,-9.322867 11.14,-12 m 227.34068,49.774667 c 2.95133,-0.872 4.01466,2.04267 4.79333,4.226 1.82867,5.126 3.84133,10.45667 6.27133,15.33267 10.33134,20.72933 28.046,41.898 31.39467,65.33333 0.97334,6.81267 0.97667,20.32334 -3.566,25.904 -3.56867,4.384 -13.036,5.53734 -18.234,7.14 -14.49333,4.468 -29.142,12.17734 -43.98733,15.10067 -4.30067,0.84667 -3.346,-4.75867 -3.346,-7.478 0,-8.05067 0.33866,-15.97933 0.69266,-24 1.15334,-26.1 6.74534,-52.15667 13.48467,-77.33333 1.652,-6.17067 5.43867,-22.14067 12.49667,-24.22534 m 35.326,115.55867 c -1.33134,14.80267 -19.95467,30.13067 -29.23,40.66667 -3.40334,3.866 -8.24867,10.97399 -14.10334,10.56799 -11.78266,-0.81733 -15.08933,-9.16333 -17.256,-19.23466 -0.608,-2.82533 -2.48466,-7.83933 -0.34133,-10.33467 2.22,-2.58333 7.16533,-3.59133 10.264,-4.66866 8.01267,-2.78534 15.98133,-5.71734 24,-8.482 8.56467,-2.95334 17.74,-6.99734 26.66667,-8.51467 m -67.36267,23.632 c 3.65133,-0.49 3.42533,3.856 3.89867,6.368 1.33066,7.05933 2.25066,14.56467 7.534,19.938 1.69133,1.72 8.32666,4.102 7.98266,6.76666 -0.46666,3.60867 -6.70333,7.06667 -9.386,9.012 -9.68133,7.018 -23.25533,15.79467 -35.33333,17.47734 -15.922,2.21866 -25.634,-4.278 -29.30734,-19.86067 -0.72666,-3.08333 -2.96266,-8.95067 -1.338,-11.87733 2.20334,-3.97 9.42867,-6.608 13.312,-8.61733 9.35734,-4.84067 19.04334,-9.128 28.66667,-13.41267 4.23734,-1.88667 9.34867,-5.17333 13.97067,-5.794 z"
       style="fill:#292929;stroke:none;stroke-width:0.666667" />
  </g>
</svg>
